<svg
  width="40"
  height="40"
  viewBox="0 0 40 40"
  xmlns="http://www.w3.org/2000/svg"
>
  <circle cx="20" cy="6" r="1.5" fill="#EA580C" opacity="0.8"/>
  <circle cx="28" cy="8" r="1.5" fill="#EA580C" opacity="0.8"/>
  <circle cx="34" cy="20" r="1.5" fill="#EA580C" opacity="0.8"/>
  <circle cx="28" cy="32" r="1.5" fill="#EA580C" opacity="0.8"/>
  <circle cx="20" cy="34" r="1.5" fill="#EA580C" opacity="0.8"/>
  <circle cx="12" cy="32" r="1.5" fill="#EA580C" opacity="0.8"/>
  <circle cx="6" cy="20" r="1.5" fill="#EA580C" opacity="0.8"/>
  <circle cx="12" cy="8" r="1.5" fill="#EA580C" opacity="0.8"/>

  <circle cx="20" cy="12" r="1.2" fill="#EA580C" opacity="0.9"/>
  <circle cx="25" cy="15" r="1.2" fill="#EA580C" opacity="0.9"/>
  <circle cx="28" cy="20" r="1.2" fill="#EA580C" opacity="0.9"/>
  <circle cx="25" cy="25" r="1.2" fill="#EA580C" opacity="0.9"/>
  <circle cx="20" cy="28" r="1.2" fill="#EA580C" opacity="0.9"/>
  <circle cx="15" cy="25" r="1.2" fill="#EA580C" opacity="0.9"/>
  <circle cx="12" cy="20" r="1.2" fill="#EA580C" opacity="0.9"/>
  <circle cx="15" cy="15" r="1.2" fill="#EA580C" opacity="0.9"/>

  <circle cx="20" cy="20" r="2" fill="#EA580C"/>

  <path d="M 20 12 Q 25 15 28 20 Q 25 25 20 28 Q 15 25 12 20 Q 15 15 20 12"
        fill="none" stroke="#EA580C" stroke-width="1.5" opacity="0.6"/>

  <path d="M 20 6 Q 30 10 34 20 Q 30 30 20 34 Q 10 30 6 20 Q 10 10 20 6"
        fill="none" stroke="#EA580C" stroke-width="1" opacity="0.4"/>

  <path d="M 18 18 L 22 18 L 22 22 L 18 22 Z"
        fill="none" stroke="#EA580C" stroke-width="0.8" opacity="0.7"/>
</svg>